<svg width="359" height="277" viewBox="0 0 359 277" fill="none" xmlns="http://www.w3.org/2000/svg">
<path d="M77.2283 174.8H64.1283L62.0283 181H53.0783L65.7783 145.9H75.6783L88.3783 181H79.3283L77.2283 174.8ZM75.0283 168.2L70.6783 155.35L66.3783 168.2H75.0283ZM132.294 153.1L124.744 181H115.294L110.894 162.9L106.344 181H96.9436L89.3436 153.1H97.8936L101.844 173.05L106.544 153.1H115.594L120.344 172.95L124.244 153.1H132.294ZM161.854 166.6C161.854 167.4 161.804 168.233 161.704 169.1H142.354C142.487 170.833 143.037 172.167 144.004 173.1C145.004 174 146.221 174.45 147.654 174.45C149.787 174.45 151.271 173.55 152.104 171.75H161.204C160.737 173.583 159.887 175.233 158.654 176.7C157.454 178.167 155.937 179.317 154.104 180.15C152.271 180.983 150.221 181.4 147.954 181.4C145.221 181.4 142.787 180.817 140.654 179.65C138.521 178.483 136.854 176.817 135.654 174.65C134.454 172.483 133.854 169.95 133.854 167.05C133.854 164.15 134.437 161.617 135.604 159.45C136.804 157.283 138.471 155.617 140.604 154.45C142.737 153.283 145.187 152.7 147.954 152.7C150.654 152.7 153.054 153.267 155.154 154.4C157.254 155.533 158.887 157.15 160.054 159.25C161.254 161.35 161.854 163.8 161.854 166.6ZM153.104 164.35C153.104 162.883 152.604 161.717 151.604 160.85C150.604 159.983 149.354 159.55 147.854 159.55C146.421 159.55 145.204 159.967 144.204 160.8C143.237 161.633 142.637 162.817 142.404 164.35H153.104ZM177.715 181.4C175.281 181.4 173.115 180.983 171.215 180.15C169.315 179.317 167.815 178.183 166.715 176.75C165.615 175.283 164.998 173.65 164.865 171.85H173.315C173.415 172.817 173.865 173.6 174.665 174.2C175.465 174.8 176.448 175.1 177.615 175.1C178.681 175.1 179.498 174.9 180.065 174.5C180.665 174.067 180.965 173.517 180.965 172.85C180.965 172.05 180.548 171.467 179.715 171.1C178.881 170.7 177.531 170.267 175.665 169.8C173.665 169.333 171.998 168.85 170.665 168.35C169.331 167.817 168.181 167 167.215 165.9C166.248 164.767 165.765 163.25 165.765 161.35C165.765 159.75 166.198 158.3 167.065 157C167.965 155.667 169.265 154.617 170.965 153.85C172.698 153.083 174.748 152.7 177.115 152.7C180.615 152.7 183.365 153.567 185.365 155.3C187.398 157.033 188.565 159.333 188.865 162.2H180.965C180.831 161.233 180.398 160.467 179.665 159.9C178.965 159.333 178.031 159.05 176.865 159.05C175.865 159.05 175.098 159.25 174.565 159.65C174.031 160.017 173.765 160.533 173.765 161.2C173.765 162 174.181 162.6 175.015 163C175.881 163.4 177.215 163.8 179.015 164.2C181.081 164.733 182.765 165.267 184.065 165.8C185.365 166.3 186.498 167.133 187.465 168.3C188.465 169.433 188.981 170.967 189.015 172.9C189.015 174.533 188.548 176 187.615 177.3C186.715 178.567 185.398 179.567 183.665 180.3C181.965 181.033 179.981 181.4 177.715 181.4ZM206.946 181.4C204.212 181.4 201.746 180.817 199.546 179.65C197.379 178.483 195.662 176.817 194.396 174.65C193.162 172.483 192.546 169.95 192.546 167.05C192.546 164.183 193.179 161.667 194.446 159.5C195.712 157.3 197.446 155.617 199.646 154.45C201.846 153.283 204.312 152.7 207.046 152.7C209.779 152.7 212.246 153.283 214.446 154.45C216.646 155.617 218.379 157.3 219.646 159.5C220.912 161.667 221.546 164.183 221.546 167.05C221.546 169.917 220.896 172.45 219.596 174.65C218.329 176.817 216.579 178.483 214.346 179.65C212.146 180.817 209.679 181.4 206.946 181.4ZM206.946 174C208.579 174 209.962 173.4 211.096 172.2C212.262 171 212.846 169.283 212.846 167.05C212.846 164.817 212.279 163.1 211.146 161.9C210.046 160.7 208.679 160.1 207.046 160.1C205.379 160.1 203.996 160.7 202.896 161.9C201.796 163.067 201.246 164.783 201.246 167.05C201.246 169.283 201.779 171 202.846 172.2C203.946 173.4 205.312 174 206.946 174ZM261.681 152.8C265.148 152.8 267.898 153.85 269.931 155.95C271.998 158.05 273.031 160.967 273.031 164.7V181H264.531V165.85C264.531 164.05 264.048 162.667 263.081 161.7C262.148 160.7 260.848 160.2 259.181 160.2C257.515 160.2 256.198 160.7 255.231 161.7C254.298 162.667 253.831 164.05 253.831 165.85V181H245.331V165.85C245.331 164.05 244.848 162.667 243.881 161.7C242.948 160.7 241.648 160.2 239.981 160.2C238.315 160.2 236.998 160.7 236.031 161.7C235.098 162.667 234.631 164.05 234.631 165.85V181H226.081V153.1H234.631V156.6C235.498 155.433 236.631 154.517 238.031 153.85C239.431 153.15 241.015 152.8 242.781 152.8C244.881 152.8 246.748 153.25 248.381 154.15C250.048 155.05 251.348 156.333 252.281 158C253.248 156.467 254.565 155.217 256.231 154.25C257.898 153.283 259.715 152.8 261.681 152.8ZM305.311 166.6C305.311 167.4 305.261 168.233 305.161 169.1H285.811C285.944 170.833 286.494 172.167 287.461 173.1C288.461 174 289.678 174.45 291.111 174.45C293.244 174.45 294.728 173.55 295.561 171.75H304.661C304.194 173.583 303.344 175.233 302.111 176.7C300.911 178.167 299.394 179.317 297.561 180.15C295.728 180.983 293.678 181.4 291.411 181.4C288.678 181.4 286.244 180.817 284.111 179.65C281.978 178.483 280.311 176.817 279.111 174.65C277.911 172.483 277.311 169.95 277.311 167.05C277.311 164.15 277.894 161.617 279.061 159.45C280.261 157.283 281.928 155.617 284.061 154.45C286.194 153.283 288.644 152.7 291.411 152.7C294.111 152.7 296.511 153.267 298.611 154.4C300.711 155.533 302.344 157.15 303.511 159.25C304.711 161.35 305.311 163.8 305.311 166.6ZM296.561 164.35C296.561 162.883 296.061 161.717 295.061 160.85C294.061 159.983 292.811 159.55 291.311 159.55C289.878 159.55 288.661 159.967 287.661 160.8C286.694 161.633 286.094 162.817 285.861 164.35H296.561ZM29.5477 236.8H16.4477L14.3477 243H5.39766L18.0977 207.9H27.9977L40.6977 243H31.6477L29.5477 236.8ZM27.3477 230.2L22.9977 217.35L18.6977 230.2H27.3477ZM84.3129 207.9V243H75.7629V221.95L67.9129 243H61.0129L53.1129 221.9V243H44.5629V207.9H54.6629L64.5129 232.2L74.2629 207.9H84.3129ZM117.211 219.2C117.211 221.233 116.745 223.1 115.811 224.8C114.878 226.467 113.445 227.817 111.511 228.85C109.578 229.883 107.178 230.4 104.311 230.4H99.0113V243H90.4613V207.9H104.311C107.111 207.9 109.478 208.383 111.411 209.35C113.345 210.317 114.795 211.65 115.761 213.35C116.728 215.05 117.211 217 117.211 219.2ZM103.661 223.6C105.295 223.6 106.511 223.217 107.311 222.45C108.111 221.683 108.511 220.6 108.511 219.2C108.511 217.8 108.111 216.717 107.311 215.95C106.511 215.183 105.295 214.8 103.661 214.8H99.0113V223.6H103.661ZM146.258 222.2H141.658V243H133.108V222.2H130.008V215.1H133.108V214.3C133.108 210.867 134.092 208.267 136.058 206.5C138.025 204.7 140.908 203.8 144.708 203.8C145.342 203.8 145.808 203.817 146.108 203.85V211.1C144.475 211 143.325 211.233 142.658 211.8C141.992 212.367 141.658 213.383 141.658 214.85V215.1H146.258V222.2ZM162.976 243.4C160.242 243.4 157.776 242.817 155.576 241.65C153.409 240.483 151.692 238.817 150.426 236.65C149.192 234.483 148.576 231.95 148.576 229.05C148.576 226.183 149.209 223.667 150.476 221.5C151.742 219.3 153.476 217.617 155.676 216.45C157.876 215.283 160.342 214.7 163.076 214.7C165.809 214.7 168.276 215.283 170.476 216.45C172.676 217.617 174.409 219.3 175.676 221.5C176.942 223.667 177.576 226.183 177.576 229.05C177.576 231.917 176.926 234.45 175.626 236.65C174.359 238.817 172.609 240.483 170.376 241.65C168.176 242.817 165.709 243.4 162.976 243.4ZM162.976 236C164.609 236 165.992 235.4 167.126 234.2C168.292 233 168.876 231.283 168.876 229.05C168.876 226.817 168.309 225.1 167.176 223.9C166.076 222.7 164.709 222.1 163.076 222.1C161.409 222.1 160.026 222.7 158.926 223.9C157.826 225.067 157.276 226.783 157.276 229.05C157.276 231.283 157.809 233 158.876 234.2C159.976 235.4 161.342 236 162.976 236ZM190.662 219.75C191.662 218.217 192.912 217.017 194.412 216.15C195.912 215.25 197.578 214.8 199.412 214.8V223.85H197.062C194.928 223.85 193.328 224.317 192.262 225.25C191.195 226.15 190.662 227.75 190.662 230.05V243H182.112V215.1H190.662V219.75ZM222.644 214.75V221.85H234.094V228.45H222.644V236.15H235.594V243H214.094V207.9H235.594V214.75H222.644ZM276.745 214.8C280.212 214.8 282.962 215.85 284.995 217.95C287.062 220.05 288.095 222.967 288.095 226.7V243H279.595V227.85C279.595 226.05 279.112 224.667 278.145 223.7C277.212 222.7 275.912 222.2 274.245 222.2C272.578 222.2 271.262 222.7 270.295 223.7C269.362 224.667 268.895 226.05 268.895 227.85V243H260.395V227.85C260.395 226.05 259.912 224.667 258.945 223.7C258.012 222.7 256.712 222.2 255.045 222.2C253.378 222.2 252.062 222.7 251.095 223.7C250.162 224.667 249.695 226.05 249.695 227.85V243H241.145V215.1H249.695V218.6C250.562 217.433 251.695 216.517 253.095 215.85C254.495 215.15 256.078 214.8 257.845 214.8C259.945 214.8 261.812 215.25 263.445 216.15C265.112 217.05 266.412 218.333 267.345 220C268.312 218.467 269.628 217.217 271.295 216.25C272.962 215.283 274.778 214.8 276.745 214.8ZM292.375 229C292.375 226.133 292.908 223.617 293.975 221.45C295.075 219.283 296.558 217.617 298.425 216.45C300.291 215.283 302.375 214.7 304.675 214.7C306.641 214.7 308.358 215.1 309.825 215.9C311.325 216.7 312.475 217.75 313.275 219.05V215.1H321.825V243H313.275V239.05C312.441 240.35 311.275 241.4 309.775 242.2C308.308 243 306.591 243.4 304.625 243.4C302.358 243.4 300.291 242.817 298.425 241.65C296.558 240.45 295.075 238.767 293.975 236.6C292.908 234.4 292.375 231.867 292.375 229ZM313.275 229.05C313.275 226.917 312.675 225.233 311.475 224C310.308 222.767 308.875 222.15 307.175 222.15C305.475 222.15 304.025 222.767 302.825 224C301.658 225.2 301.075 226.867 301.075 229C301.075 231.133 301.658 232.833 302.825 234.1C304.025 235.333 305.475 235.95 307.175 235.95C308.875 235.95 310.308 235.333 311.475 234.1C312.675 232.867 313.275 231.183 313.275 229.05ZM332.31 212.2C330.81 212.2 329.577 211.767 328.61 210.9C327.677 210 327.21 208.9 327.21 207.6C327.21 206.267 327.677 205.167 328.61 204.3C329.577 203.4 330.81 202.95 332.31 202.95C333.777 202.95 334.977 203.4 335.91 204.3C336.877 205.167 337.36 206.267 337.36 207.6C337.36 208.9 336.877 210 335.91 210.9C334.977 211.767 333.777 212.2 332.31 212.2ZM336.56 215.1V243H328.01V215.1H336.56ZM351.306 206V243H342.756V206H351.306Z" fill="#005AF0"/>
<g clip-path="url(#clip0)">
<path fill-rule="evenodd" clip-rule="evenodd" d="M155 96.0909C155 109.396 165.786 120.182 179.091 120.182C192.397 120.182 203.182 109.396 203.182 96.0909C203.182 82.7863 192.397 72 179.091 72C165.786 72 155 82.7863 155 96.0909Z" fill="white"/>
<path d="M177.244 110.703H175.413L177.225 99.7447L171.62 99.7527H171.539C171.297 99.7519 171.065 99.6553 170.895 99.484C170.724 99.3128 170.627 99.0808 170.627 98.8389C170.627 98.6221 170.828 98.2559 170.828 98.2559L180.901 81.4565L182.764 81.4645L180.907 92.4403L186.541 92.4339H186.631C187.136 92.4339 187.545 92.8418 187.545 93.3462C187.545 93.5517 187.465 93.7316 187.351 93.8842L177.244 110.703ZM179.091 72C165.786 72 155 82.7863 155 96.0909C155 109.396 165.786 120.182 179.091 120.182C192.397 120.182 203.182 109.396 203.182 96.0909C203.182 82.7863 192.397 72 179.091 72Z" fill="#005AF0"/>
</g>
<defs>
<clipPath id="clip0">
<rect width="48.1818" height="48.1818" fill="white" transform="translate(155 72)"/>
</clipPath>
</defs>
</svg>
