<svg width="359" height="205" viewBox="0 0 359 205" fill="none" xmlns="http://www.w3.org/2000/svg">
<path d="M77.2283 102.8H64.1283L62.0283 109H53.0783L65.7783 73.9H75.6783L88.3783 109H79.3283L77.2283 102.8ZM75.0283 96.2L70.6783 83.35L66.3783 96.2H75.0283ZM132.294 81.1L124.744 109H115.294L110.894 90.9L106.344 109H96.9436L89.3436 81.1H97.8936L101.844 101.05L106.544 81.1H115.594L120.344 100.95L124.244 81.1H132.294ZM161.854 94.6C161.854 95.4 161.804 96.2333 161.704 97.1H142.354C142.487 98.8333 143.037 100.167 144.004 101.1C145.004 102 146.221 102.45 147.654 102.45C149.787 102.45 151.271 101.55 152.104 99.75H161.204C160.737 101.583 159.887 103.233 158.654 104.7C157.454 106.167 155.937 107.317 154.104 108.15C152.271 108.983 150.221 109.4 147.954 109.4C145.221 109.4 142.787 108.817 140.654 107.65C138.521 106.483 136.854 104.817 135.654 102.65C134.454 100.483 133.854 97.95 133.854 95.05C133.854 92.15 134.437 89.6167 135.604 87.45C136.804 85.2833 138.471 83.6167 140.604 82.45C142.737 81.2833 145.187 80.7 147.954 80.7C150.654 80.7 153.054 81.2667 155.154 82.4C157.254 83.5333 158.887 85.15 160.054 87.25C161.254 89.35 161.854 91.8 161.854 94.6ZM153.104 92.35C153.104 90.8833 152.604 89.7167 151.604 88.85C150.604 87.9833 149.354 87.55 147.854 87.55C146.421 87.55 145.204 87.9667 144.204 88.8C143.237 89.6333 142.637 90.8167 142.404 92.35H153.104ZM177.715 109.4C175.281 109.4 173.115 108.983 171.215 108.15C169.315 107.317 167.815 106.183 166.715 104.75C165.615 103.283 164.998 101.65 164.865 99.85H173.315C173.415 100.817 173.865 101.6 174.665 102.2C175.465 102.8 176.448 103.1 177.615 103.1C178.681 103.1 179.498 102.9 180.065 102.5C180.665 102.067 180.965 101.517 180.965 100.85C180.965 100.05 180.548 99.4667 179.715 99.1C178.881 98.7 177.531 98.2667 175.665 97.8C173.665 97.3333 171.998 96.85 170.665 96.35C169.331 95.8167 168.181 95 167.215 93.9C166.248 92.7667 165.765 91.25 165.765 89.35C165.765 87.75 166.198 86.3 167.065 85C167.965 83.6667 169.265 82.6167 170.965 81.85C172.698 81.0833 174.748 80.7 177.115 80.7C180.615 80.7 183.365 81.5667 185.365 83.3C187.398 85.0333 188.565 87.3333 188.865 90.2H180.965C180.831 89.2333 180.398 88.4667 179.665 87.9C178.965 87.3333 178.031 87.05 176.865 87.05C175.865 87.05 175.098 87.25 174.565 87.65C174.031 88.0167 173.765 88.5333 173.765 89.2C173.765 90 174.181 90.6 175.015 91C175.881 91.4 177.215 91.8 179.015 92.2C181.081 92.7333 182.765 93.2667 184.065 93.8C185.365 94.3 186.498 95.1333 187.465 96.3C188.465 97.4333 188.981 98.9667 189.015 100.9C189.015 102.533 188.548 104 187.615 105.3C186.715 106.567 185.398 107.567 183.665 108.3C181.965 109.033 179.981 109.4 177.715 109.4ZM206.946 109.4C204.212 109.4 201.746 108.817 199.546 107.65C197.379 106.483 195.662 104.817 194.396 102.65C193.162 100.483 192.546 97.95 192.546 95.05C192.546 92.1833 193.179 89.6667 194.446 87.5C195.712 85.3 197.446 83.6167 199.646 82.45C201.846 81.2833 204.312 80.7 207.046 80.7C209.779 80.7 212.246 81.2833 214.446 82.45C216.646 83.6167 218.379 85.3 219.646 87.5C220.912 89.6667 221.546 92.1833 221.546 95.05C221.546 97.9167 220.896 100.45 219.596 102.65C218.329 104.817 216.579 106.483 214.346 107.65C212.146 108.817 209.679 109.4 206.946 109.4ZM206.946 102C208.579 102 209.962 101.4 211.096 100.2C212.262 99 212.846 97.2833 212.846 95.05C212.846 92.8167 212.279 91.1 211.146 89.9C210.046 88.7 208.679 88.1 207.046 88.1C205.379 88.1 203.996 88.7 202.896 89.9C201.796 91.0667 201.246 92.7833 201.246 95.05C201.246 97.2833 201.779 99 202.846 100.2C203.946 101.4 205.312 102 206.946 102ZM261.681 80.8C265.148 80.8 267.898 81.85 269.931 83.95C271.998 86.05 273.031 88.9667 273.031 92.7V109H264.531V93.85C264.531 92.05 264.048 90.6667 263.081 89.7C262.148 88.7 260.848 88.2 259.181 88.2C257.515 88.2 256.198 88.7 255.231 89.7C254.298 90.6667 253.831 92.05 253.831 93.85V109H245.331V93.85C245.331 92.05 244.848 90.6667 243.881 89.7C242.948 88.7 241.648 88.2 239.981 88.2C238.315 88.2 236.998 88.7 236.031 89.7C235.098 90.6667 234.631 92.05 234.631 93.85V109H226.081V81.1H234.631V84.6C235.498 83.4333 236.631 82.5167 238.031 81.85C239.431 81.15 241.015 80.8 242.781 80.8C244.881 80.8 246.748 81.25 248.381 82.15C250.048 83.05 251.348 84.3333 252.281 86C253.248 84.4667 254.565 83.2167 256.231 82.25C257.898 81.2833 259.715 80.8 261.681 80.8ZM305.311 94.6C305.311 95.4 305.261 96.2333 305.161 97.1H285.811C285.944 98.8333 286.494 100.167 287.461 101.1C288.461 102 289.678 102.45 291.111 102.45C293.244 102.45 294.728 101.55 295.561 99.75H304.661C304.194 101.583 303.344 103.233 302.111 104.7C300.911 106.167 299.394 107.317 297.561 108.15C295.728 108.983 293.678 109.4 291.411 109.4C288.678 109.4 286.244 108.817 284.111 107.65C281.978 106.483 280.311 104.817 279.111 102.65C277.911 100.483 277.311 97.95 277.311 95.05C277.311 92.15 277.894 89.6167 279.061 87.45C280.261 85.2833 281.928 83.6167 284.061 82.45C286.194 81.2833 288.644 80.7 291.411 80.7C294.111 80.7 296.511 81.2667 298.611 82.4C300.711 83.5333 302.344 85.15 303.511 87.25C304.711 89.35 305.311 91.8 305.311 94.6ZM296.561 92.35C296.561 90.8833 296.061 89.7167 295.061 88.85C294.061 87.9833 292.811 87.55 291.311 87.55C289.878 87.55 288.661 87.9667 287.661 88.8C286.694 89.6333 286.094 90.8167 285.861 92.35H296.561ZM29.5477 164.8H16.4477L14.3477 171H5.39766L18.0977 135.9H27.9977L40.6977 171H31.6477L29.5477 164.8ZM27.3477 158.2L22.9977 145.35L18.6977 158.2H27.3477ZM84.3129 135.9V171H75.7629V149.95L67.9129 171H61.0129L53.1129 149.9V171H44.5629V135.9H54.6629L64.5129 160.2L74.2629 135.9H84.3129ZM117.211 147.2C117.211 149.233 116.745 151.1 115.811 152.8C114.878 154.467 113.445 155.817 111.511 156.85C109.578 157.883 107.178 158.4 104.311 158.4H99.0113V171H90.4613V135.9H104.311C107.111 135.9 109.478 136.383 111.411 137.35C113.345 138.317 114.795 139.65 115.761 141.35C116.728 143.05 117.211 145 117.211 147.2ZM103.661 151.6C105.295 151.6 106.511 151.217 107.311 150.45C108.111 149.683 108.511 148.6 108.511 147.2C108.511 145.8 108.111 144.717 107.311 143.95C106.511 143.183 105.295 142.8 103.661 142.8H99.0113V151.6H103.661ZM146.258 150.2H141.658V171H133.108V150.2H130.008V143.1H133.108V142.3C133.108 138.867 134.092 136.267 136.058 134.5C138.025 132.7 140.908 131.8 144.708 131.8C145.342 131.8 145.808 131.817 146.108 131.85V139.1C144.475 139 143.325 139.233 142.658 139.8C141.992 140.367 141.658 141.383 141.658 142.85V143.1H146.258V150.2ZM162.976 171.4C160.242 171.4 157.776 170.817 155.576 169.65C153.409 168.483 151.692 166.817 150.426 164.65C149.192 162.483 148.576 159.95 148.576 157.05C148.576 154.183 149.209 151.667 150.476 149.5C151.742 147.3 153.476 145.617 155.676 144.45C157.876 143.283 160.342 142.7 163.076 142.7C165.809 142.7 168.276 143.283 170.476 144.45C172.676 145.617 174.409 147.3 175.676 149.5C176.942 151.667 177.576 154.183 177.576 157.05C177.576 159.917 176.926 162.45 175.626 164.65C174.359 166.817 172.609 168.483 170.376 169.65C168.176 170.817 165.709 171.4 162.976 171.4ZM162.976 164C164.609 164 165.992 163.4 167.126 162.2C168.292 161 168.876 159.283 168.876 157.05C168.876 154.817 168.309 153.1 167.176 151.9C166.076 150.7 164.709 150.1 163.076 150.1C161.409 150.1 160.026 150.7 158.926 151.9C157.826 153.067 157.276 154.783 157.276 157.05C157.276 159.283 157.809 161 158.876 162.2C159.976 163.4 161.342 164 162.976 164ZM190.662 147.75C191.662 146.217 192.912 145.017 194.412 144.15C195.912 143.25 197.578 142.8 199.412 142.8V151.85H197.062C194.928 151.85 193.328 152.317 192.262 153.25C191.195 154.15 190.662 155.75 190.662 158.05V171H182.112V143.1H190.662V147.75ZM222.644 142.75V149.85H234.094V156.45H222.644V164.15H235.594V171H214.094V135.9H235.594V142.75H222.644ZM276.745 142.8C280.212 142.8 282.962 143.85 284.995 145.95C287.062 148.05 288.095 150.967 288.095 154.7V171H279.595V155.85C279.595 154.05 279.112 152.667 278.145 151.7C277.212 150.7 275.912 150.2 274.245 150.2C272.578 150.2 271.262 150.7 270.295 151.7C269.362 152.667 268.895 154.05 268.895 155.85V171H260.395V155.85C260.395 154.05 259.912 152.667 258.945 151.7C258.012 150.7 256.712 150.2 255.045 150.2C253.378 150.2 252.062 150.7 251.095 151.7C250.162 152.667 249.695 154.05 249.695 155.85V171H241.145V143.1H249.695V146.6C250.562 145.433 251.695 144.517 253.095 143.85C254.495 143.15 256.078 142.8 257.845 142.8C259.945 142.8 261.812 143.25 263.445 144.15C265.112 145.05 266.412 146.333 267.345 148C268.312 146.467 269.628 145.217 271.295 144.25C272.962 143.283 274.778 142.8 276.745 142.8ZM292.375 157C292.375 154.133 292.908 151.617 293.975 149.45C295.075 147.283 296.558 145.617 298.425 144.45C300.291 143.283 302.375 142.7 304.675 142.7C306.641 142.7 308.358 143.1 309.825 143.9C311.325 144.7 312.475 145.75 313.275 147.05V143.1H321.825V171H313.275V167.05C312.441 168.35 311.275 169.4 309.775 170.2C308.308 171 306.591 171.4 304.625 171.4C302.358 171.4 300.291 170.817 298.425 169.65C296.558 168.45 295.075 166.767 293.975 164.6C292.908 162.4 292.375 159.867 292.375 157ZM313.275 157.05C313.275 154.917 312.675 153.233 311.475 152C310.308 150.767 308.875 150.15 307.175 150.15C305.475 150.15 304.025 150.767 302.825 152C301.658 153.2 301.075 154.867 301.075 157C301.075 159.133 301.658 160.833 302.825 162.1C304.025 163.333 305.475 163.95 307.175 163.95C308.875 163.95 310.308 163.333 311.475 162.1C312.675 160.867 313.275 159.183 313.275 157.05ZM332.31 140.2C330.81 140.2 329.577 139.767 328.61 138.9C327.677 138 327.21 136.9 327.21 135.6C327.21 134.267 327.677 133.167 328.61 132.3C329.577 131.4 330.81 130.95 332.31 130.95C333.777 130.95 334.977 131.4 335.91 132.3C336.877 133.167 337.36 134.267 337.36 135.6C337.36 136.9 336.877 138 335.91 138.9C334.977 139.767 333.777 140.2 332.31 140.2ZM336.56 143.1V171H328.01V143.1H336.56ZM351.306 134V171H342.756V134H351.306Z" fill="#005AF0"/>
<g clip-path="url(#clip0)">
<path fill-rule="evenodd" clip-rule="evenodd" d="M155 24.0909C155 37.3955 165.786 48.1818 179.091 48.1818C192.397 48.1818 203.182 37.3955 203.182 24.0909C203.182 10.7863 192.397 0 179.091 0C165.786 0 155 10.7863 155 24.0909Z" fill="white"/>
<path d="M177.244 38.7028H175.413L177.225 27.7447L171.62 27.7527H171.539C171.297 27.7519 171.065 27.6553 170.895 27.484C170.724 27.3128 170.627 27.0808 170.627 26.8389C170.627 26.6221 170.828 26.2559 170.828 26.2559L180.901 9.45648L182.764 9.46452L180.907 20.4403L186.541 20.4339H186.631C187.136 20.4339 187.545 20.8418 187.545 21.3462C187.545 21.5517 187.465 21.7316 187.351 21.8842L177.244 38.7028ZM179.091 0C165.786 0 155 10.7863 155 24.0909C155 37.3955 165.786 48.1818 179.091 48.1818C192.397 48.1818 203.182 37.3955 203.182 24.0909C203.182 10.7863 192.397 0 179.091 0Z" fill="#005AF0"/>
</g>
<defs>
<clipPath id="clip0">
<rect width="48.1818" height="48.1818" fill="white" transform="translate(155)"/>
</clipPath>
</defs>
</svg>
